<svg xmlns="http://www.w3.org/2000/svg" version="1.1" xmlns:xlink="http://www.w3.org/1999/xlink" xmlns:svgjs="http://svgjs.dev/svgjs" width="1440" height="560" preserveAspectRatio="none" viewBox="0 0 1440 560"><g mask="url(&quot;#SvgjsMask2550&quot;)" fill="none"><rect width="1440" height="560" x="0" y="0" fill="url(&quot;#SvgjsLinearGradient2551&quot;)"></rect><path d="M743.750430326829 432.5787949038992L879.2358623244027 444.4322342765994 891.0893016971029 308.94680227902563 755.6038696995291 297.0933629063255z" fill="rgba(216, 27, 96, 0.35)" class="triangle-float2"></path><path d="M1170.0939657561396 272.9958571430672L1082.3007105738475 244.47009933793885 1141.5682079510113 360.78911232535927z" fill="rgba(216, 27, 96, 0.35)" class="triangle-float2"></path><path d="M857.7807967498866 227.09899435885552L970.5150742848095 135.8085764173004 766.4903788083315 114.3647168239326z" fill="rgba(216, 27, 96, 0.3)" class="triangle-float3"></path><path d="M764.84 361.17 a114.58 114.58 0 1 0 229.16 0 a114.58 114.58 0 1 0 -229.16 0z" fill="rgba(255, 179, 0, 0.3)" class="triangle-float2"></path><path d="M394.57652153971657 382.3383852526287L268.6161670661096 242.17684400108203 214.98532848060995 397.9321087999666z" fill="rgba(216, 27, 96, 0.35)" class="triangle-float1"></path><path d="M1228.9088174038097 360.0921928960859L1298.0867126548121 462.65264027908484 1400.647160037811 393.47474502808245 1331.4692647868087 290.9142976450835z" fill="rgba(255, 179, 0, 0.3)" class="triangle-float2"></path><path d="M1194.9989035190786 535.0808712682889L1332.7388635109332 461.8432354239451 1259.5012276665893 324.1032754320904 1121.7612676747347 397.34091127643427z" fill="rgba(216, 27, 96, 0.3)" class="triangle-float3"></path><path d="M-118.85 203.88 a154.79 154.79 0 1 0 309.58 0 a154.79 154.79 0 1 0 -309.58 0z" fill="rgba(216, 27, 96, 0.35)" class="triangle-float1"></path><path d="M429.4892816558171 355.0802771572115L418.7973802510142 202.17896351745702 265.8960666112597 212.87086492225987 276.5879680160626 365.7721785620144z" fill="rgba(255, 179, 0, 0.3)" class="triangle-float1"></path><path d="M941.1 504.14 a154.25 154.25 0 1 0 308.5 0 a154.25 154.25 0 1 0 -308.5 0z" fill="rgba(216, 27, 96, 0.3)" class="triangle-float3"></path><path d="M351.17885075497475 162.68945843691378L237.9664463570631 36.71311329627212 189.7633731637994 176.7050028015525z" fill="rgba(216, 27, 96, 0.35)" class="triangle-float1"></path><path d="M382.43 176.69 a138.73 138.73 0 1 0 277.46 0 a138.73 138.73 0 1 0 -277.46 0z" fill="rgba(255, 179, 0, 0.3)" class="triangle-float2"></path><path d="M613.5090131684852-8.840464156340857L671.67883399503 135.1348946370213 815.654192788392 76.96507381047657 757.4843719618474-67.01028498288558z" fill="rgba(216, 27, 96, 0.35)" class="triangle-float2"></path><path d="M371.8946939621348 239.58836689534604L294.02751756440114 292.11044055808895 411.74421625738233 382.650168323318z" fill="rgba(216, 27, 96, 0.35)" class="triangle-float2"></path><path d="M85.53 513.37 a119.08 119.08 0 1 0 238.16 0 a119.08 119.08 0 1 0 -238.16 0z" fill="rgba(255, 179, 0, 0.3)" class="triangle-float1"></path></g><defs><mask id="SvgjsMask2550"><rect width="1440" height="560" fill="#ffffff"></rect></mask><linearGradient x1="15.28%" y1="-39.29%" x2="84.72%" y2="139.29%" gradientUnits="userSpaceOnUse" id="SvgjsLinearGradient2551"><stop stop-color="rgba(252, 228, 236, 1)" offset="0.07"></stop><stop stop-color="rgba(248, 187, 208, 1)" offset="0.44"></stop><stop stop-color="rgba(240, 98, 146, 1)" offset="0.99"></stop></linearGradient><style>
                @keyframes float1 {
                    0%{transform: translate(0, 0)}
                    50%{transform: translate(-10px, 0)}
                    100%{transform: translate(0, 0)}
                }

                .triangle-float1 {
                    animation: float1 5s infinite;
                }

                @keyframes float2 {
                    0%{transform: translate(0, 0)}
                    50%{transform: translate(-5px, -5px)}
                    100%{transform: translate(0, 0)}
                }

                .triangle-float2 {
                    animation: float2 4s infinite;
                }

                @keyframes float3 {
                    0%{transform: translate(0, 0)}
                    50%{transform: translate(0, -10px)}
                    100%{transform: translate(0, 0)}
                }

                .triangle-float3 {
                    animation: float3 6s infinite;
                }
            </style></defs></svg>