<svg viewBox="0 0 1920 1080" xmlns="http://www.w3.org/2000/svg"><defs><linearGradient id="blueBg" x1="0%" y1="0%" x2="100%" y2="100%"><stop offset="0%" stop-color="#e3f2fd"/><stop offset="100%" stop-color="#bbdefb"/></linearGradient></defs><rect width="1920" height="1080" fill="url(#blueBg)"/><g fill="#1976d2" opacity="0.5"><path d="M12 4.3c-3.3-3.3-8.7-3.3-12 0s-3.3 8.7 0 12l12 12 12-12c3.3-3.3 3.3-8.7 0-12s-8.7-3.3-12 0z" transform="translate(150 100) scale(1.5)"/><path d="M12 4.3c-3.3-3.3-8.7-3.3-12 0s-3.3 8.7 0 12l12 12 12-12c3.3-3.3 3.3-8.7 0-12s-8.7-3.3-12 0z" transform="translate(450 250) scale(1.2)"/><path d="M12 4.3c-3.3-3.3-8.7-3.3-12 0s-3.3 8.7 0 12l12 12 12-12c3.3-3.3 3.3-8.7 0-12s-8.7-3.3-12 0z" transform="translate(850 180) scale(1.8)"/><path d="M12 4.3c-3.3-3.3-8.7-3.3-12 0s-3.3 8.7 0 12l12 12 12-12c3.3-3.3 3.3-8.7 0-12s-8.7-3.3-12 0z" transform="translate(1200 350) scale(1.3)"/><path d="M12 4.3c-3.3-3.3-8.7-3.3-12 0s-3.3 8.7 0 12l12 12 12-12c3.3-3.3 3.3-8.7 0-12s-8.7-3.3-12 0z" transform="translate(300 500) scale(1.6)"/><path d="M12 4.3c-3.3-3.3-8.7-3.3-12 0s-3.3 8.7 0 12l12 12 12-12c3.3-3.3 3.3-8.7 0-12s-8.7-3.3-12 0z" transform="translate(1500 600) scale(1.4)"/><path d="M12 4.3c-3.3-3.3-8.7-3.3-12 0s-3.3 8.7 0 12l12 12 12-12c3.3-3.3 3.3-8.7 0-12s-8.7-3.3-12 0z" transform="translate(700 700) scale(1.1)"/><path d="M12 4.3c-3.3-3.3-8.7-3.3-12 0s-3.3 8.7 0 12l12 12 12-12c3.3-3.3 3.3-8.7 0-12s-8.7-3.3-12 0z" transform="translate(1650 200) scale(1.7)"/><path d="M12 4.3c-3.3-3.3-8.7-3.3-12 0s-3.3 8.7 0 12l12 12 12-12c3.3-3.3 3.3-8.7 0-12s-8.7-3.3-12 0z" transform="translate(950 850) scale(1.5)"/><path d="M12 4.3c-3.3-3.3-8.7-3.3-12 0s-3.3 8.7 0 12l12 12 12-12c3.3-3.3 3.3-8.7 0-12s-8.7-3.3-12 0z" transform="translate(100 800) scale(1.2)"/><path d="M12 4.3c-3.3-3.3-8.7-3.3-12 0s-3.3 8.7 0 12l12 12 12-12c3.3-3.3 3.3-8.7 0-12s-8.7-3.3-12 0z" transform="translate(550 450) scale(0.9)"/><path d="M12 4.3c-3.3-3.3-8.7-3.3-12 0s-3.3 8.7 0 12l12 12 12-12c3.3-3.3 3.3-8.7 0-12s-8.7-3.3-12 0z" transform="translate(1350 750) scale(1.3)"/><path d="M12 4.3c-3.3-3.3-8.7-3.3-12 0s-3.3 8.7 0 12l12 12 12-12c3.3-3.3 3.3-8.7 0-12s-8.7-3.3-12 0z" transform="translate(1750 450) scale(1.1)"/><path d="M12 4.3c-3.3-3.3-8.7-3.3-12 0s-3.3 8.7 0 12l12 12 12-12c3.3-3.3 3.3-8.7 0-12s-8.7-3.3-12 0z" transform="translate(250 950) scale(1.6)"/><path d="M12 4.3c-3.3-3.3-8.7-3.3-12 0s-3.3 8.7 0 12l12 12 12-12c3.3-3.3 3.3-8.7 0-12s-8.7-3.3-12 0z" transform="translate(650 150) scale(1.4)"/><path d="M12 4.3c-3.3-3.3-8.7-3.3-12 0s-3.3 8.7 0 12l12 12 12-12c3.3-3.3 3.3-8.7 0-12s-8.7-3.3-12 0z" transform="translate(1100 550) scale(0.8)"/></g></svg>