<svg viewBox="0 0 1920 1080" xmlns="http://www.w3.org/2000/svg"><defs><linearGradient id="darkBg" x1="0%" y1="0%" x2="100%" y2="100%"><stop offset="0%" stop-color="#232526"/><stop offset="100%" stop-color="#23272F"/></linearGradient></defs><rect width="1920" height="1080" fill="url(#darkBg)"/><g fill="#01aeff" opacity="0.6"><path d="M12 4.3c-3.3-3.3-8.7-3.3-12 0s-3.3 8.7 0 12l12 12 12-12c3.3-3.3 3.3-8.7 0-12s-8.7-3.3-12 0z" transform="translate(150 100) scale(1.5)"/><path d="M12 4.3c-3.3-3.3-8.7-3.3-12 0s-3.3 8.7 0 12l12 12 12-12c3.3-3.3 3.3-8.7 0-12s-8.7-3.3-12 0z" transform="translate(450 250) scale(1.2)"/><path d="M12 4.3c-3.3-3.3-8.7-3.3-12 0s-3.3 8.7 0 12l12 12 12-12c3.3-3.3 3.3-8.7 0-12s-8.7-3.3-12 0z" transform="translate(850 180) scale(1.8)"/><path d="M12 4.3c-3.3-3.3-8.7-3.3-12 0s-3.3 8.7 0 12l12 12 12-12c3.3-3.3 3.3-8.7 0-12s-8.7-3.3-12 0z" transform="translate(1200 350) scale(1.3)"/><path d="M12 4.3c-3.3-3.3-8.7-3.3-12 0s-3.3 8.7 0 12l12 12 12-12c3.3-3.3 3.3-8.7 0-12s-8.7-3.3-12 0z" transform="translate(300 500) scale(1.6)"/><path d="M12 4.3c-3.3-3.3-8.7-3.3-12 0s-3.3 8.7 0 12l12 12 12-12c3.3-3.3 3.3-8.7 0-12s-8.7-3.3-12 0z" transform="translate(1500 600) scale(1.4)"/><path d="M12 4.3c-3.3-3.3-8.7-3.3-12 0s-3.3 8.7 0 12l12 12 12-12c3.3-3.3 3.3-8.7 0-12s-8.7-3.3-12 0z" transform="translate(700 700) scale(1.1)"/><path d="M12 4.3c-3.3-3.3-8.7-3.3-12 0s-3.3 8.7 0 12l12 12 12-12c3.3-3.3 3.3-8.7 0-12s-8.7-3.3-12 0z" transform="translate(1650 200) scale(1.7)"/><path d="M12 4.3c-3.3-3.3-8.7-3.3-12 0s-3.3 8.7 0 12l12 12 12-12c3.3-3.3 3.3-8.7 0-12s-8.7-3.3-12 0z" transform="translate(950 850) scale(1.5)"/><path d="M12 4.3c-3.3-3.3-8.7-3.3-12 0s-3.3 8.7 0 12l12 12 12-12c3.3-3.3 3.3-8.7 0-12s-8.7-3.3-12 0z" transform="translate(100 800) scale(1.2)"/><path d="M12 4.3c-3.3-3.3-8.7-3.3-12 0s-3.3 8.7 0 12l12 12 12-12c3.3-3.3 3.3-8.7 0-12s-8.7-3.3-12 0z" transform="translate(550 450) scale(0.9)"/><path d="M12 4.3c-3.3-3.3-8.7-3.3-12 0s-3.3 8.7 0 12l12 12 12-12c3.3-3.3 3.3-8.7 0-12s-8.7-3.3-12 0z" transform="translate(1350 750) scale(1.3)"/><path d="M12 4.3c-3.3-3.3-8.7-3.3-12 0s-3.3 8.7 0 12l12 12 12-12c3.3-3.3 3.3-8.7 0-12s-8.7-3.3-12 0z" transform="translate(1750 450) scale(1.1)"/><path d="M12 4.3c-3.3-3.3-8.7-3.3-12 0s-3.3 8.7 0 12l12 12 12-12c3.3-3.3 3.3-8.7 0-12s-8.7-3.3-12 0z" transform="translate(250 950) scale(1.6)"/><path d="M12 4.3c-3.3-3.3-8.7-3.3-12 0s-3.3 8.7 0 12l12 12 12-12c3.3-3.3 3.3-8.7 0-12s-8.7-3.3-12 0z" transform="translate(650 150) scale(1.4)"/><path d="M12 4.3c-3.3-3.3-8.7-3.3-12 0s-3.3 8.7 0 12l12 12 12-12c3.3-3.3 3.3-8.7 0-12s-8.7-3.3-12 0z" transform="translate(1100 550) scale(0.8)"/><path d="M12 4.3c-3.3-3.3-8.7-3.3-12 0s-3.3 8.7 0 12l12 12 12-12c3.3-3.3 3.3-8.7 0-12s-8.7-3.3-12 0z" transform="translate(380 650) scale(1.4)"/><path d="M12 4.3c-3.3-3.3-8.7-3.3-12 0s-3.3 8.7 0 12l12 12 12-12c3.3-3.3 3.3-8.7 0-12s-8.7-3.3-12 0z" transform="translate(1400 150) scale(1.1)"/><path d="M12 4.3c-3.3-3.3-8.7-3.3-12 0s-3.3 8.7 0 12l12 12 12-12c3.3-3.3 3.3-8.7 0-12s-8.7-3.3-12 0z" transform="translate(200 400) scale(1.6)"/><path d="M12 4.3c-3.3-3.3-8.7-3.3-12 0s-3.3 8.7 0 12l12 12 12-12c3.3-3.3 3.3-8.7 0-12s-8.7-3.3-12 0z" transform="translate(900 320) scale(1.3)"/><path d="M12 4.3c-3.3-3.3-8.7-3.3-12 0s-3.3 8.7 0 12l12 12 12-12c3.3-3.3 3.3-8.7 0-12s-8.7-3.3-12 0z" transform="translate(1600 850) scale(1.5)"/><path d="M12 4.3c-3.3-3.3-8.7-3.3-12 0s-3.3 8.7 0 12l12 12 12-12c3.3-3.3 3.3-8.7 0-12s-8.7-3.3-12 0z" transform="translate(450 900) scale(1.2)"/><path d="M12 4.3c-3.3-3.3-8.7-3.3-12 0s-3.3 8.7 0 12l12 12 12-12c3.3-3.3 3.3-8.7 0-12s-8.7-3.3-12 0z" transform="translate(1250 650) scale(1.7)"/><path d="M12 4.3c-3.3-3.3-8.7-3.3-12 0s-3.3 8.7 0 12l12 12 12-12c3.3-3.3 3.3-8.7 0-12s-8.7-3.3-12 0z" transform="translate(50 200) scale(1.0)"/><path d="M12 4.3c-3.3-3.3-8.7-3.3-12 0s-3.3 8.7 0 12l12 12 12-12c3.3-3.3 3.3-8.7 0-12s-8.7-3.3-12 0z" transform="translate(750 450) scale(1.3)"/><path d="M12 4.3c-3.3-3.3-8.7-3.3-12 0s-3.3 8.7 0 12l12 12 12-12c3.3-3.3 3.3-8.7 0-12s-8.7-3.3-12 0z" transform="translate(1850 500) scale(1.2)"/><path d="M12 4.3c-3.3-3.3-8.7-3.3-12 0s-3.3 8.7 0 12l12 12 12-12c3.3-3.3 3.3-8.7 0-12s-8.7-3.3-12 0z" transform="translate(350 80) scale(1.5)"/><path d="M12 4.3c-3.3-3.3-8.7-3.3-12 0s-3.3 8.7 0 12l12 12 12-12c3.3-3.3 3.3-8.7 0-12s-8.7-3.3-12 0z" transform="translate(1050 200) scale(1.4)"/><path d="M12 4.3c-3.3-3.3-8.7-3.3-12 0s-3.3 8.7 0 12l12 12 12-12c3.3-3.3 3.3-8.7 0-12s-8.7-3.3-12 0z" transform="translate(600 750) scale(1.1)"/><path d="M12 4.3c-3.3-3.3-8.7-3.3-12 0s-3.3 8.7 0 12l12 12 12-12c3.3-3.3 3.3-8.7 0-12s-8.7-3.3-12 0z" transform="translate(1450 950) scale(1.6)"/><path d="M12 4.3c-3.3-3.3-8.7-3.3-12 0s-3.3 8.7 0 12l12 12 12-12c3.3-3.3 3.3-8.7 0-12s-8.7-3.3-12 0z" transform="translate(280 600) scale(0.9)"/><path d="M12 4.3c-3.3-3.3-8.7-3.3-12 0s-3.3 8.7 0 12l12 12 12-12c3.3-3.3 3.3-8.7 0-12s-8.7-3.3-12 0z" transform="translate(1100 900) scale(1.3)"/><path d="M12 4.3c-3.3-3.3-8.7-3.3-12 0s-3.3 8.7 0 12l12 12 12-12c3.3-3.3 3.3-8.7 0-12s-8.7-3.3-12 0z" transform="translate(800 100) scale(1.5)"/><path d="M12 4.3c-3.3-3.3-8.7-3.3-12 0s-3.3 8.7 0 12l12 12 12-12c3.3-3.3 3.3-8.7 0-12s-8.7-3.3-12 0z" transform="translate(150 550) scale(1.2)"/><path d="M12 4.3c-3.3-3.3-8.7-3.3-12 0s-3.3 8.7 0 12l12 12 12-12c3.3-3.3 3.3-8.7 0-12s-8.7-3.3-12 0z" transform="translate(1700 750) scale(1.4)"/><path d="M12 4.3c-3.3-3.3-8.7-3.3-12 0s-3.3 8.7 0 12l12 12 12-12c3.3-3.3 3.3-8.7 0-12s-8.7-3.3-12 0z" transform="translate(950 500) scale(1.0)"/></g></svg>