<svg id="visual" viewBox="0 0 300 900" width="300" height="900" xmlns="http://www.w3.org/2000/svg" xmlns:xlink="http://www.w3.org/1999/xlink" version="1.1"><g stroke-width="1" stroke-linejoin="bevel"><path d="M139.7 447.7L133 463.7L163.3 488.7Z" fill="#081a28" stroke="#081a28"></path><path d="M134 501L170.3 499.3L163.3 488.7Z" fill="#15384f" stroke="#15384f"></path><path d="M163.3 488.7L172 426.7L139.7 447.7Z" fill="#112e42" stroke="#112e42"></path><path d="M208 458.3L172 426.7L163.3 488.7Z" fill="#205a7a" stroke="#205a7a"></path><path d="M133 463.7L134 501L163.3 488.7Z" fill="#081a28" stroke="#081a28"></path><path d="M170.3 499.3L208 458.3L163.3 488.7Z" fill="#112e42" stroke="#112e42"></path><path d="M134 501L173.7 515.3L170.3 499.3Z" fill="#277297" stroke="#277297"></path><path d="M170.3 499.3L213.3 494.7L208 458.3Z" fill="#081a28" stroke="#081a28"></path><path d="M208 458.3L205.3 439.3L172 426.7Z" fill="#1d4e6b" stroke="#1d4e6b"></path><path d="M205.3 439.3L193 418L172 426.7Z" fill="#112e42" stroke="#112e42"></path><path d="M172 426.7L122.3 418L139.7 447.7Z" fill="#1d4e6b" stroke="#1d4e6b"></path><path d="M139.7 447.7L122.3 418L133 463.7Z" fill="#297ea6" stroke="#297ea6"></path><path d="M133 463.7L71.7 468.3L134 501Z" fill="#277297" stroke="#277297"></path><path d="M135.7 400.3L122.3 418L172 426.7Z" fill="#0c2435" stroke="#0c2435"></path><path d="M214.3 498L213.3 494.7L214 499.3Z" fill="#0c2435" stroke="#0c2435"></path><path d="M226.7 424.3L205.7 409L205.3 439.3Z" fill="#246688" stroke="#246688"></path><path d="M193 418L162.3 399.3L172 426.7Z" fill="#246688" stroke="#246688"></path><path d="M214 499.3L213.3 494.7L170.3 499.3Z" fill="#15384f" stroke="#15384f"></path><path d="M279.7 457.7L226.7 424.3L208 458.3Z" fill="#00101c" stroke="#00101c"></path><path d="M173.7 515.3L214 499.3L170.3 499.3Z" fill="#205a7a" stroke="#205a7a"></path><path d="M162.3 399.3L135.7 400.3L172 426.7Z" fill="#277297" stroke="#277297"></path><path d="M134 501L148.3 533L173.7 515.3Z" fill="#00101c" stroke="#00101c"></path><path d="M173.7 515.3L205.7 524L214 499.3Z" fill="#205a7a" stroke="#205a7a"></path><path d="M205.3 439.3L205.7 409L193 418Z" fill="#15384f" stroke="#15384f"></path><path d="M193 418L167 383.7L162.3 399.3Z" fill="#081a28" stroke="#081a28"></path><path d="M226.7 424.3L205.3 439.3L208 458.3Z" fill="#19435d" stroke="#19435d"></path><path d="M135.7 400.3L120 398.3L122.3 418Z" fill="#112e42" stroke="#112e42"></path><path d="M117.3 368.3L120 398.3L135.7 400.3Z" fill="#205a7a" stroke="#205a7a"></path><path d="M182 586.7L205.7 524L173.7 515.3Z" fill="#205a7a" stroke="#205a7a"></path><path d="M248.3 501.3L208 458.3L213.3 494.7Z" fill="#297ea6" stroke="#297ea6"></path><path d="M205.7 409L167 383.7L193 418Z" fill="#297ea6" stroke="#297ea6"></path><path d="M162.3 399.3L167 383.7L135.7 400.3Z" fill="#277297" stroke="#277297"></path><path d="M71 419L71.7 468.3L122.3 418Z" fill="#19435d" stroke="#19435d"></path><path d="M122.3 418L71.7 468.3L133 463.7Z" fill="#15384f" stroke="#15384f"></path><path d="M134 501L102 530.3L148.3 533Z" fill="#19435d" stroke="#19435d"></path><path d="M75.7 521.3L102 530.3L134 501Z" fill="#246688" stroke="#246688"></path><path d="M226.7 424.3L234.7 411L205.7 409Z" fill="#277297" stroke="#277297"></path><path d="M209.3 326.3L192.7 323L167 383.7Z" fill="#15384f" stroke="#15384f"></path><path d="M279.7 457.7L234.7 411L226.7 424.3Z" fill="#19435d" stroke="#19435d"></path><path d="M214 499.3L248.3 501.3L214.3 498Z" fill="#00101c" stroke="#00101c"></path><path d="M214.3 498L248.3 501.3L213.3 494.7Z" fill="#00101c" stroke="#00101c"></path><path d="M205.7 524L234 522L214 499.3Z" fill="#00101c" stroke="#00101c"></path><path d="M232 601.3L234 522L205.7 524Z" fill="#1d4e6b" stroke="#1d4e6b"></path><path d="M234 522L248.3 501.3L214 499.3Z" fill="#081a28" stroke="#081a28"></path><path d="M120 398.3L71 419L122.3 418Z" fill="#246688" stroke="#246688"></path><path d="M71.7 468.3L75.7 521.3L134 501Z" fill="#0c2435" stroke="#0c2435"></path><path d="M63.7 388L66.3 418L71 419Z" fill="#0c2435" stroke="#0c2435"></path><path d="M71 419L44.3 460.3L71.7 468.3Z" fill="#297ea6" stroke="#297ea6"></path><path d="M71.7 468.3L50.3 504.7L75.7 521.3Z" fill="#112e42" stroke="#112e42"></path><path d="M126.7 355.7L117.3 368.3L135.7 400.3Z" fill="#00101c" stroke="#00101c"></path><path d="M120 398.3L92.7 374.7L71 419Z" fill="#246688" stroke="#246688"></path><path d="M117.3 368.3L92.7 374.7L120 398.3Z" fill="#081a28" stroke="#081a28"></path><path d="M110.3 569.7L140.7 574.7L148.3 533Z" fill="#00101c" stroke="#00101c"></path><path d="M148.3 533L182 586.7L173.7 515.3Z" fill="#112e42" stroke="#112e42"></path><path d="M110.3 569.7L148.3 533L102 530.3Z" fill="#081a28" stroke="#081a28"></path><path d="M192.7 323L126.7 355.7L167 383.7Z" fill="#0c2435" stroke="#0c2435"></path><path d="M167 383.7L126.7 355.7L135.7 400.3Z" fill="#1d4e6b" stroke="#1d4e6b"></path><path d="M117.3 368.3L92.7 353.3L92.7 374.7Z" fill="#00101c" stroke="#00101c"></path><path d="M66.3 418L44.3 460.3L71 419Z" fill="#205a7a" stroke="#205a7a"></path><path d="M44.3 460.3L50.3 504.7L71.7 468.3Z" fill="#246688" stroke="#246688"></path><path d="M71 543.7L110.3 569.7L102 530.3Z" fill="#205a7a" stroke="#205a7a"></path><path d="M71 543.7L102 530.3L75.7 521.3Z" fill="#1d4e6b" stroke="#1d4e6b"></path><path d="M44.3 516L71 543.7L75.7 521.3Z" fill="#1d4e6b" stroke="#1d4e6b"></path><path d="M92.7 374.7L63.7 388L71 419Z" fill="#081a28" stroke="#081a28"></path><path d="M66.3 418L40.7 428.7L44.3 460.3Z" fill="#00101c" stroke="#00101c"></path><path d="M92.7 353.3L63.7 388L92.7 374.7Z" fill="#277297" stroke="#277297"></path><path d="M300 470.7L279.7 457.7L248.3 501.3Z" fill="#19435d" stroke="#19435d"></path><path d="M248.3 501.3L279.7 457.7L208 458.3Z" fill="#277297" stroke="#277297"></path><path d="M63.7 388L40.7 428.7L66.3 418Z" fill="#15384f" stroke="#15384f"></path><path d="M160 591L182 586.7L140.7 574.7Z" fill="#00101c" stroke="#00101c"></path><path d="M140.7 574.7L182 586.7L148.3 533Z" fill="#112e42" stroke="#112e42"></path><path d="M0 501.3L44.3 516L50.3 504.7Z" fill="#19435d" stroke="#19435d"></path><path d="M50.3 504.7L44.3 516L75.7 521.3Z" fill="#15384f" stroke="#15384f"></path><path d="M39.7 539L44.3 516L0 521Z" fill="#246688" stroke="#246688"></path><path d="M129.3 596L160 591L140.7 574.7Z" fill="#00101c" stroke="#00101c"></path><path d="M126.7 355.7L92.7 353.3L117.3 368.3Z" fill="#19435d" stroke="#19435d"></path><path d="M279.7 457.7L270.3 394L234.7 411Z" fill="#1d4e6b" stroke="#1d4e6b"></path><path d="M234.7 411L256.7 366.3L205.7 409Z" fill="#112e42" stroke="#112e42"></path><path d="M160 591L187.7 595L182 586.7Z" fill="#112e42" stroke="#112e42"></path><path d="M182 586.7L232 601.3L205.7 524Z" fill="#1d4e6b" stroke="#1d4e6b"></path><path d="M234 522L274.7 530.3L248.3 501.3Z" fill="#0c2435" stroke="#0c2435"></path><path d="M278.7 538L274.7 530.3L234 522Z" fill="#297ea6" stroke="#297ea6"></path><path d="M88 597.3L129.3 596L110.3 569.7Z" fill="#1d4e6b" stroke="#1d4e6b"></path><path d="M110.3 569.7L129.3 596L140.7 574.7Z" fill="#0c2435" stroke="#0c2435"></path><path d="M160 591L145.3 625.3L187.7 595Z" fill="#205a7a" stroke="#205a7a"></path><path d="M270.3 394L256.7 366.3L234.7 411Z" fill="#205a7a" stroke="#205a7a"></path><path d="M0 501.3L50.3 504.7L44.3 460.3Z" fill="#00101c" stroke="#00101c"></path><path d="M44.3 516L39.7 539L71 543.7Z" fill="#15384f" stroke="#15384f"></path><path d="M71 543.7L56.3 570.3L110.3 569.7Z" fill="#277297" stroke="#277297"></path><path d="M126.7 355.7L103.3 335.7L92.7 353.3Z" fill="#081a28" stroke="#081a28"></path><path d="M92.7 353.3L29.3 343.7L63.7 388Z" fill="#00101c" stroke="#00101c"></path><path d="M137.3 300L103.3 335.7L126.7 355.7Z" fill="#0c2435" stroke="#0c2435"></path><path d="M252.3 601.7L278.7 538L234 522Z" fill="#205a7a" stroke="#205a7a"></path><path d="M300 523L300 470.7L248.3 501.3Z" fill="#205a7a" stroke="#205a7a"></path><path d="M300 523L248.3 501.3L274.7 530.3Z" fill="#112e42" stroke="#112e42"></path><path d="M279.7 457.7L300 433L270.3 394Z" fill="#081a28" stroke="#081a28"></path><path d="M103.3 335.7L93 337.3L92.7 353.3Z" fill="#277297" stroke="#277297"></path><path d="M103.3 335.7L93 335.7L93 337.3Z" fill="#205a7a" stroke="#205a7a"></path><path d="M93 337.3L29.3 343.7L92.7 353.3Z" fill="#0c2435" stroke="#0c2435"></path><path d="M0 402.3L0 464.7L40.7 428.7Z" fill="#297ea6" stroke="#297ea6"></path><path d="M300 470.7L300 435.3L279.7 457.7Z" fill="#297ea6" stroke="#297ea6"></path><path d="M270.3 394L300 349.3L256.7 366.3Z" fill="#1d4e6b" stroke="#1d4e6b"></path><path d="M300 435.3L300 433L279.7 457.7Z" fill="#246688" stroke="#246688"></path><path d="M209.3 326.3L167 383.7L205.7 409Z" fill="#112e42" stroke="#112e42"></path><path d="M103.3 335.7L71.7 305L93 335.7Z" fill="#277297" stroke="#277297"></path><path d="M39.7 539L56.3 570.3L71 543.7Z" fill="#297ea6" stroke="#297ea6"></path><path d="M223.3 329.7L209.3 326.3L205.7 409Z" fill="#112e42" stroke="#112e42"></path><path d="M300 545.3L285.7 538.7L300 578Z" fill="#19435d" stroke="#19435d"></path><path d="M278.7 538L285.7 538.7L274.7 530.3Z" fill="#112e42" stroke="#112e42"></path><path d="M56.3 570.3L88 597.3L110.3 569.7Z" fill="#1d4e6b" stroke="#1d4e6b"></path><path d="M243.3 623L232 601.3L204.7 656.3Z" fill="#205a7a" stroke="#205a7a"></path><path d="M256.7 366.3L223.3 329.7L205.7 409Z" fill="#15384f" stroke="#15384f"></path><path d="M285.7 538.7L300 523L274.7 530.3Z" fill="#1d4e6b" stroke="#1d4e6b"></path><path d="M145.3 625.3L160 591L129.3 596Z" fill="#1d4e6b" stroke="#1d4e6b"></path><path d="M187.7 595L232 601.3L182 586.7Z" fill="#277297" stroke="#277297"></path><path d="M285.7 538.7L300 532.7L300 523Z" fill="#277297" stroke="#277297"></path><path d="M0 402.3L40.7 428.7L63.7 388Z" fill="#15384f" stroke="#15384f"></path><path d="M40.7 428.7L0 464.7L44.3 460.3Z" fill="#297ea6" stroke="#297ea6"></path><path d="M31.3 578L45.7 589.7L56.3 570.3Z" fill="#00101c" stroke="#00101c"></path><path d="M300 545.3L300 532.7L285.7 538.7Z" fill="#297ea6" stroke="#297ea6"></path><path d="M131.3 631.7L145.3 625.3L129.3 596Z" fill="#246688" stroke="#246688"></path><path d="M0 464.7L0 501.3L44.3 460.3Z" fill="#19435d" stroke="#19435d"></path><path d="M179 276L192.7 323L192 276.7Z" fill="#19435d" stroke="#19435d"></path><path d="M151.7 293.3L147.3 302.7L192.7 323Z" fill="#00101c" stroke="#00101c"></path><path d="M192.7 323L147.3 302.7L126.7 355.7Z" fill="#0c2435" stroke="#0c2435"></path><path d="M300 578L285.7 538.7L278.7 538Z" fill="#1d4e6b" stroke="#1d4e6b"></path><path d="M256.7 366.3L234 317.3L223.3 329.7Z" fill="#112e42" stroke="#112e42"></path><path d="M223.3 329.7L234 317.3L209.3 326.3Z" fill="#15384f" stroke="#15384f"></path><path d="M300 328.7L234 317.3L256.7 366.3Z" fill="#00101c" stroke="#00101c"></path><path d="M151.7 293.3L137.3 300L147.3 302.7Z" fill="#205a7a" stroke="#205a7a"></path><path d="M147.3 302.7L137.3 300L126.7 355.7Z" fill="#1d4e6b" stroke="#1d4e6b"></path><path d="M252.3 603.3L252.3 601.7L232 601.3Z" fill="#00101c" stroke="#00101c"></path><path d="M232 601.3L252.3 601.7L234 522Z" fill="#15384f" stroke="#15384f"></path><path d="M45.7 589.7L93 619L88 597.3Z" fill="#277297" stroke="#277297"></path><path d="M88 597.3L93 619L129.3 596Z" fill="#19435d" stroke="#19435d"></path><path d="M45.7 589.7L88 597.3L56.3 570.3Z" fill="#0c2435" stroke="#0c2435"></path><path d="M0 501.3L0 521L44.3 516Z" fill="#15384f" stroke="#15384f"></path><path d="M31.3 578L56.3 570.3L39.7 539Z" fill="#1d4e6b" stroke="#1d4e6b"></path><path d="M243.3 623L252.3 603.3L232 601.3Z" fill="#15384f" stroke="#15384f"></path><path d="M252.3 601.7L300 578L278.7 538Z" fill="#1d4e6b" stroke="#1d4e6b"></path><path d="M93 619L131.3 631.7L129.3 596Z" fill="#297ea6" stroke="#297ea6"></path><path d="M204.7 656.3L232 601.3L187.7 595Z" fill="#246688" stroke="#246688"></path><path d="M29.3 343.7L93 337.3L65.3 308Z" fill="#0c2435" stroke="#0c2435"></path><path d="M0 379.7L0 402.3L63.7 388Z" fill="#112e42" stroke="#112e42"></path><path d="M0 532.7L31.3 578L39.7 539Z" fill="#0c2435" stroke="#0c2435"></path><path d="M179 276L151.7 293.3L192.7 323Z" fill="#112e42" stroke="#112e42"></path><path d="M0 521L0 532.7L39.7 539Z" fill="#081a28" stroke="#081a28"></path><path d="M17.3 605.7L36.7 590L31.3 578Z" fill="#297ea6" stroke="#297ea6"></path><path d="M31.3 578L36.7 590L45.7 589.7Z" fill="#0c2435" stroke="#0c2435"></path><path d="M26.3 657.3L51.3 671.7L93 619Z" fill="#277297" stroke="#277297"></path><path d="M71.7 305L103.3 335.7L137.3 300Z" fill="#205a7a" stroke="#205a7a"></path><path d="M65.3 308L93 337.3L93 335.7Z" fill="#0c2435" stroke="#0c2435"></path><path d="M0 378L0 379.7L63.7 388Z" fill="#00101c" stroke="#00101c"></path><path d="M29.3 343.7L0 378L63.7 388Z" fill="#246688" stroke="#246688"></path><path d="M248.7 630.7L243.3 623L204.7 656.3Z" fill="#081a28" stroke="#081a28"></path><path d="M284.7 602.3L300 578L252.3 601.7Z" fill="#15384f" stroke="#15384f"></path><path d="M97 269L71.7 305L137.3 300Z" fill="#297ea6" stroke="#297ea6"></path><path d="M71.7 305L65.3 308L93 335.7Z" fill="#0c2435" stroke="#0c2435"></path><path d="M284.7 602.3L252.3 601.7L252.3 603.3Z" fill="#1d4e6b" stroke="#1d4e6b"></path><path d="M300 433L300 349.3L270.3 394Z" fill="#00101c" stroke="#00101c"></path><path d="M265.7 623L284.7 602.3L252.3 603.3Z" fill="#277297" stroke="#277297"></path><path d="M300 433L300.7 341.7L300 349.3Z" fill="#15384f" stroke="#15384f"></path><path d="M300 349.3L300.7 341.7L256.7 366.3Z" fill="#246688" stroke="#246688"></path><path d="M303.7 304L300.7 341.7L300 433Z" fill="#277297" stroke="#277297"></path><path d="M303.7 304L300 433L300 435.3Z" fill="#0c2435" stroke="#0c2435"></path><path d="M303.7 304L300 435.3L300 470.7Z" fill="#081a28" stroke="#081a28"></path><path d="M303.7 304L300 470.7L300 523Z" fill="#1d4e6b" stroke="#1d4e6b"></path><path d="M303.7 304L300 523L300 532.7Z" fill="#246688" stroke="#246688"></path><path d="M303.7 304L300 532.7L300 545.3Z" fill="#112e42" stroke="#112e42"></path><path d="M204.7 656.3L187.7 595L145.3 625.3Z" fill="#297ea6" stroke="#297ea6"></path><path d="M243.3 623L265.7 623L252.3 603.3Z" fill="#081a28" stroke="#081a28"></path><path d="M192 276.7L192.7 323L209.3 326.3Z" fill="#081a28" stroke="#081a28"></path><path d="M131.7 256.7L97 269L137.3 300Z" fill="#246688" stroke="#246688"></path><path d="M192 276.7L209.3 326.3L234 317.3Z" fill="#081a28" stroke="#081a28"></path><path d="M218.3 262L192 276.7L234 317.3Z" fill="#112e42" stroke="#112e42"></path><path d="M248.7 630.7L265.7 623L243.3 623Z" fill="#1d4e6b" stroke="#1d4e6b"></path><path d="M93 619L129 655.7L131.3 631.7Z" fill="#297ea6" stroke="#297ea6"></path><path d="M131.3 631.7L154.7 662L145.3 625.3Z" fill="#00101c" stroke="#00101c"></path><path d="M75 680L129 655.7L93 619Z" fill="#112e42" stroke="#112e42"></path><path d="M300.7 341.7L300 328.7L256.7 366.3Z" fill="#081a28" stroke="#081a28"></path><path d="M169.7 667.7L204.7 656.3L145.3 625.3Z" fill="#19435d" stroke="#19435d"></path><path d="M300 663.3L300 637.7L265.7 623Z" fill="#277297" stroke="#277297"></path><path d="M129 655.7L154.7 662L131.3 631.7Z" fill="#205a7a" stroke="#205a7a"></path><path d="M0 596L17.3 605.7L31.3 578Z" fill="#112e42" stroke="#112e42"></path><path d="M36.7 590L17.3 605.7L45.7 589.7Z" fill="#112e42" stroke="#112e42"></path><path d="M218.3 262L179 263.3L192 276.7Z" fill="#277297" stroke="#277297"></path><path d="M192 276.7L179 263.3L179 276Z" fill="#246688" stroke="#246688"></path><path d="M179 276L146.7 250.3L151.7 293.3Z" fill="#1d4e6b" stroke="#1d4e6b"></path><path d="M144.3 696L169.7 667.7L154.7 662Z" fill="#205a7a" stroke="#205a7a"></path><path d="M154.7 662L169.7 667.7L145.3 625.3Z" fill="#081a28" stroke="#081a28"></path><path d="M131.7 256.7L137.3 300L151.7 293.3Z" fill="#0c2435" stroke="#0c2435"></path><path d="M71.7 305L51.7 284.7L65.3 308Z" fill="#081a28" stroke="#081a28"></path><path d="M65.3 308L51.7 284.7L29.3 343.7Z" fill="#0c2435" stroke="#0c2435"></path><path d="M0 532.7L0 596L31.3 578Z" fill="#081a28" stroke="#081a28"></path><path d="M97 269L84 271.7L71.7 305Z" fill="#277297" stroke="#277297"></path><path d="M29.3 343.7L0 306L0 378Z" fill="#205a7a" stroke="#205a7a"></path><path d="M303.7 304L247.3 277.7L234 317.3Z" fill="#19435d" stroke="#19435d"></path><path d="M84 271.7L51.7 284.7L71.7 305Z" fill="#0c2435" stroke="#0c2435"></path><path d="M100.3 240.3L68.3 266.7L84 271.7Z" fill="#081a28" stroke="#081a28"></path><path d="M146.7 250.3L131.7 256.7L151.7 293.3Z" fill="#00101c" stroke="#00101c"></path><path d="M247.3 277.7L218.3 262L234 317.3Z" fill="#112e42" stroke="#112e42"></path><path d="M179 263.3L146.7 250.3L179 276Z" fill="#112e42" stroke="#112e42"></path><path d="M144.7 214L146.7 250.3L179 263.3Z" fill="#112e42" stroke="#112e42"></path><path d="M52.7 259.3L68.3 266.7L100.3 240.3Z" fill="#277297" stroke="#277297"></path><path d="M300.7 341.7L303.7 304L300 328.7Z" fill="#00101c" stroke="#00101c"></path><path d="M300 328.7L303.7 304L234 317.3Z" fill="#1d4e6b" stroke="#1d4e6b"></path><path d="M247.3 277.7L250.3 221.3L218.3 262Z" fill="#0c2435" stroke="#0c2435"></path><path d="M304.7 827.3L303.7 304L300 545.3Z" fill="#0c2435" stroke="#0c2435"></path><path d="M84 271.7L68.3 266.7L51.7 284.7Z" fill="#0c2435" stroke="#0c2435"></path><path d="M84 271.7L97 269L100.3 240.3Z" fill="#0c2435" stroke="#0c2435"></path><path d="M0 305.7L0 306L51.7 284.7Z" fill="#205a7a" stroke="#205a7a"></path><path d="M51.7 284.7L0 306L29.3 343.7Z" fill="#297ea6" stroke="#297ea6"></path><path d="M0 297.3L0 305.7L51.7 284.7Z" fill="#1d4e6b" stroke="#1d4e6b"></path><path d="M284.7 602.3L300 637.7L300 578Z" fill="#297ea6" stroke="#297ea6"></path><path d="M300 578L304.7 827.3L300 545.3Z" fill="#1d4e6b" stroke="#1d4e6b"></path><path d="M265.7 623L300 637.7L284.7 602.3Z" fill="#19435d" stroke="#19435d"></path><path d="M300 663.3L265.7 623L266.3 683.7Z" fill="#1d4e6b" stroke="#1d4e6b"></path><path d="M266.3 683.7L248.7 630.7L204.7 656.3Z" fill="#112e42" stroke="#112e42"></path><path d="M-2.7 293.3L0 297.3L11.3 268.3Z" fill="#277297" stroke="#277297"></path><path d="M100.3 240.3L97 269L131.7 256.7Z" fill="#246688" stroke="#246688"></path><path d="M68.3 266.7L52.7 259.3L51.7 284.7Z" fill="#246688" stroke="#246688"></path><path d="M51.3 671.7L75 680L93 619Z" fill="#19435d" stroke="#19435d"></path><path d="M129 655.7L144.3 696L154.7 662Z" fill="#246688" stroke="#246688"></path><path d="M93 619L45.7 589.7L26.3 657.3Z" fill="#277297" stroke="#277297"></path><path d="M168 706.3L205 690.7L169.7 667.7Z" fill="#0c2435" stroke="#0c2435"></path><path d="M169.7 667.7L205 690.7L204.7 656.3Z" fill="#19435d" stroke="#19435d"></path><path d="M0 596L0 633.7L17.3 605.7Z" fill="#0c2435" stroke="#0c2435"></path><path d="M122 215.3L131.7 256.7L146.7 250.3Z" fill="#19435d" stroke="#19435d"></path><path d="M122 215.3L100.3 240.3L131.7 256.7Z" fill="#19435d" stroke="#19435d"></path><path d="M102.7 714L144.3 696L129 655.7Z" fill="#0c2435" stroke="#0c2435"></path><path d="M26.3 657.3L45.7 589.7L17.3 605.7Z" fill="#277297" stroke="#277297"></path><path d="M0 633.7L26.3 657.3L17.3 605.7Z" fill="#112e42" stroke="#112e42"></path><path d="M11.3 268.3L0 297.3L51.7 284.7Z" fill="#112e42" stroke="#112e42"></path><path d="M0 297.3L-2.7 293.3L0 305.7Z" fill="#246688" stroke="#246688"></path><path d="M0 305.7L-2.7 293.3L0 306Z" fill="#081a28" stroke="#081a28"></path><path d="M0 306L-2.7 293.3L0 378Z" fill="#297ea6" stroke="#297ea6"></path><path d="M0 378L-2.7 293.3L0 379.7Z" fill="#112e42" stroke="#112e42"></path><path d="M0 379.7L-2.7 293.3L0 402.3Z" fill="#00101c" stroke="#00101c"></path><path d="M0 402.3L-2.7 293.3L0 464.7Z" fill="#246688" stroke="#246688"></path><path d="M0 464.7L-6.7 727.7L0 501.3Z" fill="#00101c" stroke="#00101c"></path><path d="M0 501.3L-6.7 727.7L0 521Z" fill="#19435d" stroke="#19435d"></path><path d="M0 521L-6.7 727.7L0 532.7Z" fill="#15384f" stroke="#15384f"></path><path d="M0 532.7L-6.7 727.7L0 596Z" fill="#081a28" stroke="#081a28"></path><path d="M0 596L-6.7 727.7L0 633.7Z" fill="#112e42" stroke="#112e42"></path><path d="M-6.7 727.7L0 640.3L0 633.7Z" fill="#19435d" stroke="#19435d"></path><path d="M0 633.7L0 640.3L26.3 657.3Z" fill="#277297" stroke="#277297"></path><path d="M120 732.3L155.7 701.3L144.3 696Z" fill="#205a7a" stroke="#205a7a"></path><path d="M144.3 696L155.7 701.3L169.7 667.7Z" fill="#297ea6" stroke="#297ea6"></path><path d="M1.3 696.3L36.7 671.3L26.3 657.3Z" fill="#1d4e6b" stroke="#1d4e6b"></path><path d="M26.3 657.3L36.7 671.3L51.3 671.7Z" fill="#1d4e6b" stroke="#1d4e6b"></path><path d="M51.3 671.7L49.7 701.7L75 680Z" fill="#0c2435" stroke="#0c2435"></path><path d="M148.3 760.7L168 706.3L155.7 701.3Z" fill="#00101c" stroke="#00101c"></path><path d="M102.7 714L129 655.7L75 680Z" fill="#0c2435" stroke="#0c2435"></path><path d="M155.7 701.3L168 706.3L169.7 667.7Z" fill="#1d4e6b" stroke="#1d4e6b"></path><path d="M219.3 704.3L227 698L205 690.7Z" fill="#112e42" stroke="#112e42"></path><path d="M205 690.7L227 698L204.7 656.3Z" fill="#246688" stroke="#246688"></path><path d="M303.7 304L300 266L247.3 277.7Z" fill="#15384f" stroke="#15384f"></path><path d="M215 174L144.7 214L179 263.3Z" fill="#081a28" stroke="#081a28"></path><path d="M266.3 683.7L265.7 623L248.7 630.7Z" fill="#112e42" stroke="#112e42"></path><path d="M300 637.7L304.7 827.3L300 578Z" fill="#19435d" stroke="#19435d"></path><path d="M227 698L266.3 683.7L204.7 656.3Z" fill="#15384f" stroke="#15384f"></path><path d="M52.7 259.3L11.3 268.3L51.7 284.7Z" fill="#277297" stroke="#277297"></path><path d="M0 264.3L11.3 268.3L0 211Z" fill="#277297" stroke="#277297"></path><path d="M168 706.3L219.3 704.3L205 690.7Z" fill="#205a7a" stroke="#205a7a"></path><path d="M227 698L235.3 700L266.3 683.7Z" fill="#081a28" stroke="#081a28"></path><path d="M219.3 704.3L235.3 700L227 698Z" fill="#246688" stroke="#246688"></path><path d="M215 174L179 263.3L218.3 262Z" fill="#15384f" stroke="#15384f"></path><path d="M100.3 240.3L66 195L52.7 259.3Z" fill="#246688" stroke="#246688"></path><path d="M144.7 214L122 215.3L146.7 250.3Z" fill="#205a7a" stroke="#205a7a"></path><path d="M301.7 253.7L300 256.7L300 266Z" fill="#112e42" stroke="#112e42"></path><path d="M300 266L300 256.7L247.3 277.7Z" fill="#112e42" stroke="#112e42"></path><path d="M30.7 209L11.3 268.3L52.7 259.3Z" fill="#081a28" stroke="#081a28"></path><path d="M11.3 268.3L0 264.3L-2.7 293.3Z" fill="#081a28" stroke="#081a28"></path><path d="M303.7 304L301.7 253.7L300 266Z" fill="#00101c" stroke="#00101c"></path><path d="M300 256.7L250.3 221.3L247.3 277.7Z" fill="#112e42" stroke="#112e42"></path><path d="M49.7 701.7L102.7 714L75 680Z" fill="#297ea6" stroke="#297ea6"></path><path d="M168 706.3L223.3 731.7L219.3 704.3Z" fill="#0c2435" stroke="#0c2435"></path><path d="M301.7 253.7L250.3 221.3L300 256.7Z" fill="#081a28" stroke="#081a28"></path><path d="M1.3 696.3L49.7 701.7L36.7 671.3Z" fill="#081a28" stroke="#081a28"></path><path d="M36.7 671.3L49.7 701.7L51.3 671.7Z" fill="#0c2435" stroke="#0c2435"></path><path d="M252.7 759.3L277.7 696L235.3 700Z" fill="#1d4e6b" stroke="#1d4e6b"></path><path d="M235.3 700L277.7 696L266.3 683.7Z" fill="#19435d" stroke="#19435d"></path><path d="M266.3 683.7L300 685L300 663.3Z" fill="#205a7a" stroke="#205a7a"></path><path d="M277.7 696L300 685L266.3 683.7Z" fill="#246688" stroke="#246688"></path><path d="M300 663.3L304.7 827.3L300 637.7Z" fill="#19435d" stroke="#19435d"></path><path d="M94 730.7L107.3 723.3L102.7 714Z" fill="#00101c" stroke="#00101c"></path><path d="M102.7 714L107.3 723.3L144.3 696Z" fill="#081a28" stroke="#081a28"></path><path d="M219.3 704.3L223.3 731.7L235.3 700Z" fill="#297ea6" stroke="#297ea6"></path><path d="M215 174L146.7 194.7L144.7 214Z" fill="#246688" stroke="#246688"></path><path d="M144.7 214L146.7 194.7L122 215.3Z" fill="#15384f" stroke="#15384f"></path><path d="M122 215.3L66 195L100.3 240.3Z" fill="#00101c" stroke="#00101c"></path><path d="M102.7 737.7L120 732.3L107.3 723.3Z" fill="#205a7a" stroke="#205a7a"></path><path d="M107.3 723.3L120 732.3L144.3 696Z" fill="#15384f" stroke="#15384f"></path><path d="M49.7 701.7L94 730.7L102.7 714Z" fill="#297ea6" stroke="#297ea6"></path><path d="M201.7 765.7L223.3 731.7L168 706.3Z" fill="#0c2435" stroke="#0c2435"></path><path d="M277.7 696L300 751.3L300 685Z" fill="#112e42" stroke="#112e42"></path><path d="M94 730.7L102.7 737.7L107.3 723.3Z" fill="#112e42" stroke="#112e42"></path><path d="M120 732.3L148.3 760.7L155.7 701.3Z" fill="#1d4e6b" stroke="#1d4e6b"></path><path d="M87.7 771L102.7 737.7L94 730.7Z" fill="#19435d" stroke="#19435d"></path><path d="M0 640.3L1.3 696.3L26.3 657.3Z" fill="#246688" stroke="#246688"></path><path d="M49.7 701.7L33.7 741.3L94 730.7Z" fill="#277297" stroke="#277297"></path><path d="M265.3 203.7L250.7 198.3L250.3 221.3Z" fill="#00101c" stroke="#00101c"></path><path d="M250.3 221.3L224.3 178L218.3 262Z" fill="#297ea6" stroke="#297ea6"></path><path d="M300 213.3L265.3 203.7L250.3 221.3Z" fill="#1d4e6b" stroke="#1d4e6b"></path><path d="M-6.7 727.7L0 700L0 640.3Z" fill="#15384f" stroke="#15384f"></path><path d="M0 640.3L0 700L1.3 696.3Z" fill="#15384f" stroke="#15384f"></path><path d="M1.3 696.3L0 700L49.7 701.7Z" fill="#1d4e6b" stroke="#1d4e6b"></path><path d="M117 178.7L66 195L122 215.3Z" fill="#246688" stroke="#246688"></path><path d="M66 195L30.7 209L52.7 259.3Z" fill="#081a28" stroke="#081a28"></path><path d="M301.7 253.7L300 213.3L250.3 221.3Z" fill="#00101c" stroke="#00101c"></path><path d="M256.7 169L224.3 178L250.7 198.3Z" fill="#297ea6" stroke="#297ea6"></path><path d="M146.7 194.7L117 178.7L122 215.3Z" fill="#15384f" stroke="#15384f"></path><path d="M138.3 172L117 178.7L146.7 194.7Z" fill="#1d4e6b" stroke="#1d4e6b"></path><path d="M215 174L138.3 172L146.7 194.7Z" fill="#081a28" stroke="#081a28"></path><path d="M256.7 169L250.7 198.3L265.3 203.7Z" fill="#205a7a" stroke="#205a7a"></path><path d="M250.7 198.3L224.3 178L250.3 221.3Z" fill="#00101c" stroke="#00101c"></path><path d="M224.3 178L215 174L218.3 262Z" fill="#297ea6" stroke="#297ea6"></path><path d="M87.7 771L148.3 760.7L102.7 737.7Z" fill="#081a28" stroke="#081a28"></path><path d="M102.7 737.7L148.3 760.7L120 732.3Z" fill="#1d4e6b" stroke="#1d4e6b"></path><path d="M-1.7 184.7L0 211L30.7 209Z" fill="#246688" stroke="#246688"></path><path d="M30.7 209L0 211L11.3 268.3Z" fill="#19435d" stroke="#19435d"></path><path d="M0 264.3L-2.7 183L-2.7 293.3Z" fill="#0c2435" stroke="#0c2435"></path><path d="M-1.7 184.7L30.7 209L51.7 146.7Z" fill="#1d4e6b" stroke="#1d4e6b"></path><path d="M-1.7 184.7L51.7 146.7L-2.7 183Z" fill="#297ea6" stroke="#297ea6"></path><path d="M201.7 765.7L226 755.7L223.3 731.7Z" fill="#00101c" stroke="#00101c"></path><path d="M223.3 731.7L252.7 759.3L235.3 700Z" fill="#00101c" stroke="#00101c"></path><path d="M-6.7 727.7L0 720.3L0 700Z" fill="#15384f" stroke="#15384f"></path><path d="M0 700L0 720.3L49.7 701.7Z" fill="#112e42" stroke="#112e42"></path><path d="M0 720.3L33.7 741.3L49.7 701.7Z" fill="#15384f" stroke="#15384f"></path><path d="M148.3 760.7L201.7 765.7L168 706.3Z" fill="#1d4e6b" stroke="#1d4e6b"></path><path d="M201.7 765.7L229 763L226 755.7Z" fill="#297ea6" stroke="#297ea6"></path><path d="M226 755.7L252.7 759.3L223.3 731.7Z" fill="#277297" stroke="#277297"></path><path d="M229 763L252.7 759.3L226 755.7Z" fill="#112e42" stroke="#112e42"></path><path d="M-2.7 293.3L-6.7 727.7L0 464.7Z" fill="#00101c" stroke="#00101c"></path><path d="M0 720.3L-0.7 739L33.7 741.3Z" fill="#297ea6" stroke="#297ea6"></path><path d="M300 179L256.7 169L265.3 203.7Z" fill="#1d4e6b" stroke="#1d4e6b"></path><path d="M231 129.7L210.3 138.3L215 174Z" fill="#112e42" stroke="#112e42"></path><path d="M215 174L158.3 133.3L138.3 172Z" fill="#15384f" stroke="#15384f"></path><path d="M66.3 816L87.7 771L33.7 741.3Z" fill="#1d4e6b" stroke="#1d4e6b"></path><path d="M33.7 741.3L87.7 771L94 730.7Z" fill="#277297" stroke="#277297"></path><path d="M148.3 760.7L187 828.7L201.7 765.7Z" fill="#297ea6" stroke="#297ea6"></path><path d="M-6.7 727.7L-0.7 739L0 720.3Z" fill="#246688" stroke="#246688"></path><path d="M301.7 253.7L300 179L300 213.3Z" fill="#277297" stroke="#277297"></path><path d="M300 213.3L300 179L265.3 203.7Z" fill="#246688" stroke="#246688"></path><path d="M300 167.7L300 179L301.7 253.7Z" fill="#1d4e6b" stroke="#1d4e6b"></path><path d="M252.7 759.3L300 751.3L277.7 696Z" fill="#1d4e6b" stroke="#1d4e6b"></path><path d="M300 685L304.7 827.3L300 663.3Z" fill="#0c2435" stroke="#0c2435"></path><path d="M0 211L-2.7 183L0 264.3Z" fill="#112e42" stroke="#112e42"></path><path d="M-2.7 293.3L-2.7 183L-6.7 727.7Z" fill="#297ea6" stroke="#297ea6"></path><path d="M30.7 209L66 195L51.7 146.7Z" fill="#1d4e6b" stroke="#1d4e6b"></path><path d="M79 141.3L66 195L117 178.7Z" fill="#112e42" stroke="#112e42"></path><path d="M-1.7 184.7L-2.7 183L0 211Z" fill="#00101c" stroke="#00101c"></path><path d="M300 160.3L300 167.7L301.7 253.7Z" fill="#19435d" stroke="#19435d"></path><path d="M300 179L300 167.7L256.7 169Z" fill="#081a28" stroke="#081a28"></path><path d="M231 129.7L215 174L224.3 178Z" fill="#1d4e6b" stroke="#1d4e6b"></path><path d="M231 129.7L224.3 178L256.7 169Z" fill="#205a7a" stroke="#205a7a"></path><path d="M98.3 136.7L79 141.3L117 178.7Z" fill="#246688" stroke="#246688"></path><path d="M191.7 129.3L158.3 133.3L215 174Z" fill="#246688" stroke="#246688"></path><path d="M98.3 136.7L117 178.7L138.3 172Z" fill="#297ea6" stroke="#297ea6"></path><path d="M158.3 133.3L98.3 136.7L138.3 172Z" fill="#205a7a" stroke="#205a7a"></path><path d="M0 141.7L51.7 146.7L7.3 132Z" fill="#112e42" stroke="#112e42"></path><path d="M79 141.3L51.7 146.7L66 195Z" fill="#112e42" stroke="#112e42"></path><path d="M303.7 304L300 160.3L301.7 253.7Z" fill="#205a7a" stroke="#205a7a"></path><path d="M300 167.7L300 160.3L256.7 169Z" fill="#1d4e6b" stroke="#1d4e6b"></path><path d="M210.3 138.3L191.7 129.3L215 174Z" fill="#0c2435" stroke="#0c2435"></path><path d="M158.3 133.3L151.7 101.7L98.3 136.7Z" fill="#1d4e6b" stroke="#1d4e6b"></path><path d="M198 95.3L191.7 129.3L210.3 138.3Z" fill="#15384f" stroke="#15384f"></path><path d="M66.3 816L131.3 802.3L87.7 771Z" fill="#00101c" stroke="#00101c"></path><path d="M87.7 771L131.3 802.3L148.3 760.7Z" fill="#277297" stroke="#277297"></path><path d="M201.7 765.7L235 806.3L229 763Z" fill="#1d4e6b" stroke="#1d4e6b"></path><path d="M300 786L300 775.7L293.7 790.7Z" fill="#297ea6" stroke="#297ea6"></path><path d="M252.7 759.3L300 775.7L300 751.3Z" fill="#15384f" stroke="#15384f"></path><path d="M235 806.3L252.7 759.3L229 763Z" fill="#081a28" stroke="#081a28"></path><path d="M300 751.3L304.7 827.3L300 685Z" fill="#297ea6" stroke="#297ea6"></path><path d="M281.7 136.7L231 129.7L256.7 169Z" fill="#19435d" stroke="#19435d"></path><path d="M-6.7 727.7L0 769L-0.7 739Z" fill="#1d4e6b" stroke="#1d4e6b"></path><path d="M-0.7 739L0 769L33.7 741.3Z" fill="#277297" stroke="#277297"></path><path d="M187 828.7L235 806.3L201.7 765.7Z" fill="#297ea6" stroke="#297ea6"></path><path d="M300 160.3L281.7 136.7L256.7 169Z" fill="#15384f" stroke="#15384f"></path><path d="M293.7 790.7L300 775.7L252.7 759.3Z" fill="#205a7a" stroke="#205a7a"></path><path d="M300 775.7L304.7 827.3L300 751.3Z" fill="#277297" stroke="#277297"></path><path d="M292.7 793L293.7 790.7L252.7 759.3Z" fill="#246688" stroke="#246688"></path><path d="M235 806.3L292.7 793L252.7 759.3Z" fill="#081a28" stroke="#081a28"></path><path d="M293.7 790.7L292.7 793L300 786Z" fill="#00101c" stroke="#00101c"></path><path d="M51.7 146.7L0 141.7L-2.7 183Z" fill="#1d4e6b" stroke="#1d4e6b"></path><path d="M7.3 132L51.7 146.7L25.3 109.3Z" fill="#081a28" stroke="#081a28"></path><path d="M66 102L79 141.3L98.3 136.7Z" fill="#297ea6" stroke="#297ea6"></path><path d="M300 123L286.7 126.3L281.7 136.7Z" fill="#297ea6" stroke="#297ea6"></path><path d="M281.7 136.7L245.3 98.7L231 129.7Z" fill="#277297" stroke="#277297"></path><path d="M180.7 93L158.3 133.3L191.7 129.3Z" fill="#297ea6" stroke="#297ea6"></path><path d="M-6.7 727.7L0 790.7L0 769Z" fill="#112e42" stroke="#112e42"></path><path d="M0 769L0 790.7L33.7 741.3Z" fill="#205a7a" stroke="#205a7a"></path><path d="M198 95.3L210.3 138.3L231 129.7Z" fill="#297ea6" stroke="#297ea6"></path><path d="M180.7 93L151.7 101.7L158.3 133.3Z" fill="#15384f" stroke="#15384f"></path><path d="M0 790.7L66.3 816L33.7 741.3Z" fill="#19435d" stroke="#19435d"></path><path d="M131.3 802.3L187 828.7L148.3 760.7Z" fill="#1d4e6b" stroke="#1d4e6b"></path><path d="M132 845.7L148.7 828L131.3 802.3Z" fill="#0c2435" stroke="#0c2435"></path><path d="M235 806.3L237.3 824L292.7 793Z" fill="#246688" stroke="#246688"></path><path d="M50.7 105.7L51.7 146.7L79 141.3Z" fill="#112e42" stroke="#112e42"></path><path d="M168.3 833L187 828.7L131.3 802.3Z" fill="#081a28" stroke="#081a28"></path><path d="M187 828.7L237.3 824L235 806.3Z" fill="#0c2435" stroke="#0c2435"></path><path d="M148.7 828L168.3 833L131.3 802.3Z" fill="#205a7a" stroke="#205a7a"></path><path d="M187 828.7L210.3 855.7L237.3 824Z" fill="#297ea6" stroke="#297ea6"></path><path d="M132 845.7L168.3 833L148.7 828Z" fill="#0c2435" stroke="#0c2435"></path><path d="M300 160.3L300 123L281.7 136.7Z" fill="#15384f" stroke="#15384f"></path><path d="M231.7 93L198 95.3L231 129.7Z" fill="#081a28" stroke="#081a28"></path><path d="M303.7 304L300 123L300 160.3Z" fill="#1d4e6b" stroke="#1d4e6b"></path><path d="M245.3 98.7L281.7 136.7L286.7 126.3Z" fill="#00101c" stroke="#00101c"></path><path d="M198 95.3L180.7 93L191.7 129.3Z" fill="#277297" stroke="#277297"></path><path d="M119.3 76L66 102L98.3 136.7Z" fill="#246688" stroke="#246688"></path><path d="M61.7 88L66 102L98.3 57.7Z" fill="#246688" stroke="#246688"></path><path d="M198 95.3L191 92L180.7 93Z" fill="#00101c" stroke="#00101c"></path><path d="M119.3 76L98.3 136.7L151.7 101.7Z" fill="#297ea6" stroke="#297ea6"></path><path d="M188 52.3L191 92L216.3 51.3Z" fill="#15384f" stroke="#15384f"></path><path d="M66 102L50.7 105.7L79 141.3Z" fill="#15384f" stroke="#15384f"></path><path d="M258.3 85L245.3 98.7L286.7 126.3Z" fill="#297ea6" stroke="#297ea6"></path><path d="M25.3 109.3L0 122.3L7.3 132Z" fill="#19435d" stroke="#19435d"></path><path d="M7.3 132L0 122.3L0 141.7Z" fill="#00101c" stroke="#00101c"></path><path d="M0 141.7L0 122.3L-2.7 183Z" fill="#277297" stroke="#277297"></path><path d="M245.3 98.7L231.7 93L231 129.7Z" fill="#277297" stroke="#277297"></path><path d="M26.7 106.3L25.3 109.3L50.7 105.7Z" fill="#205a7a" stroke="#205a7a"></path><path d="M50.7 105.7L25.3 109.3L51.7 146.7Z" fill="#19435d" stroke="#19435d"></path><path d="M37.3 835.7L66 833L66.3 816Z" fill="#1d4e6b" stroke="#1d4e6b"></path><path d="M115 855.3L132 845.7L131.3 802.3Z" fill="#0c2435" stroke="#0c2435"></path><path d="M36.3 70.7L26.7 106.3L50.7 105.7Z" fill="#15384f" stroke="#15384f"></path><path d="M25.3 109.3L26.7 106.3L0 122.3Z" fill="#19435d" stroke="#19435d"></path><path d="M115 855.3L131.3 802.3L66.3 816Z" fill="#0c2435" stroke="#0c2435"></path><path d="M182.7 861.3L210.3 855.7L187 828.7Z" fill="#205a7a" stroke="#205a7a"></path><path d="M119.3 76L151.7 101.7L120 62.7Z" fill="#246688" stroke="#246688"></path><path d="M66 102L61.7 88L50.7 105.7Z" fill="#277297" stroke="#277297"></path><path d="M151.7 101.7L171.3 42.3L120 62.7Z" fill="#246688" stroke="#246688"></path><path d="M300 123L300 101.7L286.7 126.3Z" fill="#277297" stroke="#277297"></path><path d="M245.3 98.7L258.3 85L231.7 93Z" fill="#277297" stroke="#277297"></path><path d="M303.7 304L300 101.7L300 123Z" fill="#205a7a" stroke="#205a7a"></path><path d="M0 790.7L37.3 835.7L66.3 816Z" fill="#112e42" stroke="#112e42"></path><path d="M66 833L115 855.3L66.3 816Z" fill="#112e42" stroke="#112e42"></path><path d="M151.7 101.7L180.7 93L171.3 42.3Z" fill="#246688" stroke="#246688"></path><path d="M191 92L198 95.3L216.3 51.3Z" fill="#081a28" stroke="#081a28"></path><path d="M282.7 853.7L304.7 827.3L237.3 824Z" fill="#246688" stroke="#246688"></path><path d="M237.3 824L304.7 827.3L292.7 793Z" fill="#1d4e6b" stroke="#1d4e6b"></path><path d="M292.7 793L304.7 827.3L300 786Z" fill="#15384f" stroke="#15384f"></path><path d="M300 786L304.7 827.3L300 775.7Z" fill="#15384f" stroke="#15384f"></path><path d="M300 101.7L258.3 85L286.7 126.3Z" fill="#15384f" stroke="#15384f"></path><path d="M54.7 854.7L115 855.3L66 833Z" fill="#277297" stroke="#277297"></path><path d="M182.7 861.3L187 828.7L168.3 833Z" fill="#112e42" stroke="#112e42"></path><path d="M182.7 861.3L168.3 833L132 845.7Z" fill="#0c2435" stroke="#0c2435"></path><path d="M151.3 896.7L182.7 861.3L132 845.7Z" fill="#0c2435" stroke="#0c2435"></path><path d="M37.3 835.7L54.7 854.7L66 833Z" fill="#112e42" stroke="#112e42"></path><path d="M168.7 900L206.3 871.3L182.7 861.3Z" fill="#081a28" stroke="#081a28"></path><path d="M0 849.3L35.7 849.3L37.3 835.7Z" fill="#00101c" stroke="#00101c"></path><path d="M37.3 835.7L35.7 849.3L54.7 854.7Z" fill="#081a28" stroke="#081a28"></path><path d="M188 52.3L180.7 93L191 92Z" fill="#297ea6" stroke="#297ea6"></path><path d="M119.3 76L98.3 57.7L66 102Z" fill="#19435d" stroke="#19435d"></path><path d="M210.3 855.7L282.7 853.7L237.3 824Z" fill="#19435d" stroke="#19435d"></path><path d="M247.3 900L282.7 853.7L210.3 855.7Z" fill="#0c2435" stroke="#0c2435"></path><path d="M151.3 896.7L132 845.7L115 855.3Z" fill="#246688" stroke="#246688"></path><path d="M182.7 861.3L206.3 871.3L210.3 855.7Z" fill="#0c2435" stroke="#0c2435"></path><path d="M102 55.3L98.3 57.7L120 62.7Z" fill="#15384f" stroke="#15384f"></path><path d="M120 62.7L98.3 57.7L119.3 76Z" fill="#277297" stroke="#277297"></path><path d="M61.7 88L36.3 70.7L50.7 105.7Z" fill="#00101c" stroke="#00101c"></path><path d="M26.7 106.3L0 67L0 122.3Z" fill="#277297" stroke="#277297"></path><path d="M98.3 57.7L36.3 70.7L61.7 88Z" fill="#00101c" stroke="#00101c"></path><path d="M35.7 849.3L49.3 862.3L54.7 854.7Z" fill="#112e42" stroke="#112e42"></path><path d="M64.3 900L106 900L115 855.3Z" fill="#112e42" stroke="#112e42"></path><path d="M100.7 8.3L102 55.3L125.3 0Z" fill="#00101c" stroke="#00101c"></path><path d="M0 22.3L0 51.7L36.3 70.7Z" fill="#1d4e6b" stroke="#1d4e6b"></path><path d="M227.7 54.7L231.7 93L258.3 85Z" fill="#205a7a" stroke="#205a7a"></path><path d="M216.3 51.3L198 95.3L231.7 93Z" fill="#0c2435" stroke="#0c2435"></path><path d="M0 790.7L0 849.3L37.3 835.7Z" fill="#00101c" stroke="#00101c"></path><path d="M35.7 849.3L0 880.7L49.3 862.3Z" fill="#205a7a" stroke="#205a7a"></path><path d="M-6.7 727.7L0 849.3L0 790.7Z" fill="#205a7a" stroke="#205a7a"></path><path d="M300 50.3L227.7 54.7L258.3 85Z" fill="#00101c" stroke="#00101c"></path><path d="M227.7 54.7L216.3 51.3L231.7 93Z" fill="#246688" stroke="#246688"></path><path d="M188 52.3L171.3 42.3L180.7 93Z" fill="#112e42" stroke="#112e42"></path><path d="M205 38.7L171.3 42.3L188 52.3Z" fill="#00101c" stroke="#00101c"></path><path d="M36.3 70.7L98.3 57.7L71 0Z" fill="#15384f" stroke="#15384f"></path><path d="M0 51.7L0 67L36.3 70.7Z" fill="#277297" stroke="#277297"></path><path d="M36.3 70.7L0 67L26.7 106.3Z" fill="#0c2435" stroke="#0c2435"></path><path d="M0 122.3L0 67L-2.7 183Z" fill="#0c2435" stroke="#0c2435"></path><path d="M216.3 51.3L205 38.7L188 52.3Z" fill="#081a28" stroke="#081a28"></path><path d="M227.7 54.7L205 38.7L216.3 51.3Z" fill="#00101c" stroke="#00101c"></path><path d="M221 0L205 38.7L229.7 0Z" fill="#081a28" stroke="#081a28"></path><path d="M257.7 900L300 869.3L282.7 853.7Z" fill="#205a7a" stroke="#205a7a"></path><path d="M282.7 853.7L300 869.3L304.7 827.3Z" fill="#15384f" stroke="#15384f"></path><path d="M146.3 900L151.3 896.7L115 855.3Z" fill="#297ea6" stroke="#297ea6"></path><path d="M206.3 871.3L247.3 900L210.3 855.7Z" fill="#112e42" stroke="#112e42"></path><path d="M146.3 900L115 855.3L106 900Z" fill="#0c2435" stroke="#0c2435"></path><path d="M146.3 900L161 900L151.3 896.7Z" fill="#0c2435" stroke="#0c2435"></path><path d="M151.3 896.7L161 900L182.7 861.3Z" fill="#19435d" stroke="#19435d"></path><path d="M161 900L168.7 900L182.7 861.3Z" fill="#205a7a" stroke="#205a7a"></path><path d="M115 855.3L54.7 854.7L64.3 900Z" fill="#19435d" stroke="#19435d"></path><path d="M303.7 304L300 50.3L300 101.7Z" fill="#246688" stroke="#246688"></path><path d="M300 101.7L300 50.3L258.3 85Z" fill="#0c2435" stroke="#0c2435"></path><path d="M64.3 900L54.7 854.7L49.3 862.3Z" fill="#277297" stroke="#277297"></path><path d="M100.7 8.3L98.3 57.7L102 55.3Z" fill="#0c2435" stroke="#0c2435"></path><path d="M0 67L0 51.7L-2.7 183Z" fill="#15384f" stroke="#15384f"></path><path d="M125.3 0L120 62.7L171.3 42.3Z" fill="#1d4e6b" stroke="#1d4e6b"></path><path d="M106 900L199.7 904.7L146.3 900Z" fill="#297ea6" stroke="#297ea6"></path><path d="M146.3 900L199.7 904.7L161 900Z" fill="#297ea6" stroke="#297ea6"></path><path d="M161 900L199.7 904.7L168.7 900Z" fill="#081a28" stroke="#081a28"></path><path d="M168.7 900L199.7 904.7L206.3 871.3Z" fill="#081a28" stroke="#081a28"></path><path d="M199.7 904.7L247.3 900L206.3 871.3Z" fill="#0c2435" stroke="#0c2435"></path><path d="M0 849.3L0 880.7L35.7 849.3Z" fill="#246688" stroke="#246688"></path><path d="M-6.7 727.7L0 880.7L0 849.3Z" fill="#1d4e6b" stroke="#1d4e6b"></path><path d="M60.7 900L64.3 900L49.3 862.3Z" fill="#297ea6" stroke="#297ea6"></path><path d="M106 900L64.3 900L199.7 904.7Z" fill="#205a7a" stroke="#205a7a"></path><path d="M0 880.7L60.7 900L49.3 862.3Z" fill="#15384f" stroke="#15384f"></path><path d="M64.3 900L60.7 900L199.7 904.7Z" fill="#246688" stroke="#246688"></path><path d="M247.3 900L257.7 900L282.7 853.7Z" fill="#081a28" stroke="#081a28"></path><path d="M300 905.7L257.7 900L247.3 900Z" fill="#00101c" stroke="#00101c"></path><path d="M183.7 0L168.7 9.3L205 38.7Z" fill="#246688" stroke="#246688"></path><path d="M205 38.7L168.7 9.3L171.3 42.3Z" fill="#205a7a" stroke="#205a7a"></path><path d="M300 905.7L300 900L257.7 900Z" fill="#19435d" stroke="#19435d"></path><path d="M257.7 900L300 900L300 869.3Z" fill="#297ea6" stroke="#297ea6"></path><path d="M300 869.3L300 900L304.7 827.3Z" fill="#081a28" stroke="#081a28"></path><path d="M125.3 0L102 55.3L120 62.7Z" fill="#277297" stroke="#277297"></path><path d="M-6.7 727.7L0 900L0 880.7Z" fill="#112e42" stroke="#112e42"></path><path d="M0 880.7L0 900L60.7 900Z" fill="#0c2435" stroke="#0c2435"></path><path d="M60.7 900L0 900L199.7 904.7Z" fill="#19435d" stroke="#19435d"></path><path d="M199.7 904.7L300 905.7L247.3 900Z" fill="#277297" stroke="#277297"></path><path d="M300 900L300 905.7L304.7 827.3Z" fill="#1d4e6b" stroke="#1d4e6b"></path><path d="M221 0L183.7 0L205 38.7Z" fill="#081a28" stroke="#081a28"></path><path d="M168.7 9.3L125.3 0L171.3 42.3Z" fill="#112e42" stroke="#112e42"></path><path d="M183.7 0L125.3 0L168.7 9.3Z" fill="#081a28" stroke="#081a28"></path><path d="M229.7 0L205 38.7L227.7 54.7Z" fill="#205a7a" stroke="#205a7a"></path><path d="M71 0L98.3 57.7L100.7 8.3Z" fill="#112e42" stroke="#112e42"></path><path d="M40.3 0L0 22.3L36.3 70.7Z" fill="#246688" stroke="#246688"></path><path d="M0 51.7L0 22.3L-2.7 183Z" fill="#297ea6" stroke="#297ea6"></path><path d="M269.3 0L229.7 0L227.7 54.7Z" fill="#15384f" stroke="#15384f"></path><path d="M125.3 0L71 0L100.7 8.3Z" fill="#19435d" stroke="#19435d"></path><path d="M71 0L46.7 0L36.3 70.7Z" fill="#0c2435" stroke="#0c2435"></path><path d="M300 50.3L269.3 0L227.7 54.7Z" fill="#081a28" stroke="#081a28"></path><path d="M125.3 0L52.3 -2.7L71 0Z" fill="#1d4e6b" stroke="#1d4e6b"></path><path d="M71 0L52.3 -2.7L46.7 0Z" fill="#297ea6" stroke="#297ea6"></path><path d="M183.7 0L52.3 -2.7L125.3 0Z" fill="#19435d" stroke="#19435d"></path><path d="M288.7 -1.7L52.3 -2.7L183.7 0Z" fill="#00101c" stroke="#00101c"></path><path d="M288.7 -1.7L183.7 0L221 0Z" fill="#19435d" stroke="#19435d"></path><path d="M288.7 -1.7L221 0L229.7 0Z" fill="#297ea6" stroke="#297ea6"></path><path d="M52.3 -2.7L40.3 0L46.7 0Z" fill="#112e42" stroke="#112e42"></path><path d="M46.7 0L40.3 0L36.3 70.7Z" fill="#19435d" stroke="#19435d"></path><path d="M300 50.3L288.7 -1.7L269.3 0Z" fill="#15384f" stroke="#15384f"></path><path d="M269.3 0L288.7 -1.7L229.7 0Z" fill="#1d4e6b" stroke="#1d4e6b"></path><path d="M303.7 304L300 0L300 50.3Z" fill="#297ea6" stroke="#297ea6"></path><path d="M300 50.3L300 0L288.7 -1.7Z" fill="#297ea6" stroke="#297ea6"></path><path d="M52.3 -2.7L0 0L40.3 0Z" fill="#277297" stroke="#277297"></path><path d="M40.3 0L0 0L0 22.3Z" fill="#19435d" stroke="#19435d"></path><path d="M0 22.3L0 0L-2.7 183Z" fill="#205a7a" stroke="#205a7a"></path></g></svg>