<svg id="visual" viewBox="0 0 300 900" width="300" height="900" xmlns="http://www.w3.org/2000/svg" xmlns:xlink="http://www.w3.org/1999/xlink" version="1.1"><path d="M272 900L268.5 887.5C265 875 258 850 255.5 825C253 800 255 775 252.5 750C250 725 243 700 245.5 675C248 650 260 625 264.5 600C269 575 266 550 264.5 525C263 500 263 475 263.5 450C264 425 265 400 265.5 375C266 350 266 325 263 300C260 275 254 250 251.5 225C249 200 250 175 249 150C248 125 245 100 249.5 75C254 50 266 25 272 12.5L278 0L300 0L300 12.5C300 25 300 50 300 75C300 100 300 125 300 150C300 175 300 200 300 225C300 250 300 275 300 300C300 325 300 350 300 375C300 400 300 425 300 450C300 475 300 500 300 525C300 550 300 575 300 600C300 625 300 650 300 675C300 700 300 725 300 750C300 775 300 800 300 825C300 850 300 875 300 887.5L300 900Z" fill="#232526"></path><path d="M245 900L242 887.5C239 875 233 850 232.5 825C232 800 237 775 236 750C235 725 228 700 231 675C234 650 247 625 249.5 600C252 575 244 550 239.5 525C235 500 234 475 237 450C240 425 247 400 249.5 375C252 350 250 325 246 300C242 275 236 250 234.5 225C233 200 236 175 234 150C232 125 225 100 229.5 75C234 50 250 25 258 12.5L266 0L279 0L273 12.5C267 25 255 50 250.5 75C246 100 249 125 250 150C251 175 250 200 252.5 225C255 250 261 275 264 300C267 325 267 350 266.5 375C266 400 265 425 264.5 450C264 475 264 500 265.5 525C267 550 270 575 265.5 600C261 625 249 650 246.5 675C244 700 251 725 253.5 750C256 775 254 800 256.5 825C259 850 266 875 269.5 887.5L273 900Z" fill="#23272F"></path><path d="M236 900L230.5 887.5C225 875 214 850 211.5 825C209 800 215 775 215 750C215 725 209 700 213 675C217 650 231 625 234 600C237 575 229 550 225 525C221 500 221 475 223.5 450C226 425 231 400 232 375C233 350 230 325 225.5 300C221 275 215 250 214 225C213 200 217 175 215 150C213 125 205 100 211 75C217 50 237 25 247 12.5L257 0L267 0L259 12.5C251 25 235 50 230.5 75C226 100 233 125 235 150C237 175 234 200 235.5 225C237 250 243 275 247 300C251 325 253 350 250.5 375C248 400 241 425 238 450C235 475 236 500 240.5 525C245 550 253 575 250.5 600C248 625 235 650 232 675C229 700 236 725 237 750C238 775 233 800 233.5 825C234 850 240 875 243 887.5L246 900Z" fill="#232526"></path><path d="M215 900L210.5 887.5C206 875 197 850 192.5 825C188 800 188 775 187 750C186 725 184 700 189 675C194 650 206 625 209.5 600C213 575 208 550 204.5 525C201 500 199 475 199.5 450C200 425 203 400 202.5 375C202 350 198 325 195 300C192 275 190 250 191 225C192 200 196 175 192.5 150C189 125 178 100 185 75C192 50 217 25 229.5 12.5L242 0L258 0L248 12.5C238 25 218 50 212 75C206 100 214 125 216 150C218 175 214 200 215 225C216 250 222 275 226.5 300C231 325 234 350 233 375C232 400 227 425 224.5 450C222 475 222 500 226 525C230 550 238 575 235 600C232 625 218 650 214 675C210 700 216 725 216 750C216 775 210 800 212.5 825C215 850 226 875 231.5 887.5L237 900Z" fill="#23272F"></path><path d="M155 900L148 887.5C141 875 127 850 116.5 825C106 800 99 775 104 750C109 725 126 700 135 675C144 650 145 625 142 600C139 575 132 550 130.5 525C129 500 133 475 138 450C143 425 149 400 143 375C137 350 119 325 118 300C117 275 133 250 137.5 225C142 200 135 175 132 150C129 125 130 100 129 75C128 50 125 25 123.5 12.5L122 0L243 0L230.5 12.5C218 25 193 50 186 75C179 100 190 125 193.5 150C197 175 193 200 192 225C191 250 193 275 196 300C199 325 203 350 203.5 375C204 400 201 425 200.5 450C200 475 202 500 205.5 525C209 550 214 575 210.5 600C207 625 195 650 190 675C185 700 187 725 188 750C189 775 189 800 193.5 825C198 850 207 875 211.5 887.5L216 900Z" fill="#232526"></path><path d="M83 900L84 887.5C85 875 87 850 82.5 825C78 800 67 775 61 750C55 725 54 700 56.5 675C59 650 65 625 67 600C69 575 67 550 67.5 525C68 500 71 475 73 450C75 425 76 400 72.5 375C69 350 61 325 63.5 300C66 275 79 250 80 225C81 200 70 175 63.5 150C57 125 55 100 57.5 75C60 50 67 25 70.5 12.5L74 0L123 0L124.5 12.5C126 25 129 50 130 75C131 100 130 125 133 150C136 175 143 200 138.5 225C134 250 118 275 119 300C120 325 138 350 144 375C150 400 144 425 139 450C134 475 130 500 131.5 525C133 550 140 575 143 600C146 625 145 650 136 675C127 700 110 725 105 750C100 775 107 800 117.5 825C128 850 142 875 149 887.5L156 900Z" fill="#23272F"></path><path d="M47 900L50 887.5C53 875 59 850 57 825C55 800 45 775 39 750C33 725 31 700 31.5 675C32 650 35 625 36 600C37 575 36 550 39 525C42 500 49 475 51 450C53 425 50 400 47.5 375C45 350 43 325 45.5 300C48 275 55 250 55.5 225C56 200 50 175 46.5 150C43 125 42 100 44.5 75C47 50 53 25 56 12.5L59 0L75 0L71.5 12.5C68 25 61 50 58.5 75C56 100 58 125 64.5 150C71 175 82 200 81 225C80 250 67 275 64.5 300C62 325 70 350 73.5 375C77 400 76 425 74 450C72 475 69 500 68.5 525C68 550 70 575 68 600C66 625 60 650 57.5 675C55 700 56 725 62 750C68 775 79 800 83.5 825C88 850 86 875 85 887.5L84 900Z" fill="#232526"></path><path d="M23 900L26 887.5C29 875 35 850 34 825C33 800 25 775 21 750C17 725 17 700 16.5 675C16 650 15 625 16 600C17 575 20 550 23.5 525C27 500 31 475 32 450C33 425 31 400 29 375C27 350 25 325 26.5 300C28 275 33 250 33 225C33 200 28 175 27 150C26 125 29 100 33 75C37 50 42 25 44.5 12.5L47 0L60 0L57 12.5C54 25 48 50 45.5 75C43 100 44 125 47.5 150C51 175 57 200 56.5 225C56 250 49 275 46.5 300C44 325 46 350 48.5 375C51 400 54 425 52 450C50 475 43 500 40 525C37 550 38 575 37 600C36 625 33 650 32.5 675C32 700 34 725 40 750C46 775 56 800 58 825C60 850 54 875 51 887.5L48 900Z" fill="#23272F"></path><path d="M0 900L0 887.5C0 875 0 850 0 825C0 800 0 775 0 750C0 725 0 700 0 675C0 650 0 625 0 600C0 575 0 550 0 525C0 500 0 475 0 450C0 425 0 400 0 375C0 350 0 325 0 300C0 275 0 250 0 225C0 200 0 175 0 150C0 125 0 100 0 75C0 50 0 25 0 12.5L0 0L48 0L45.5 12.5C43 25 38 50 34 75C30 100 27 125 28 150C29 175 34 200 34 225C34 250 29 275 27.5 300C26 325 28 350 30 375C32 400 34 425 33 450C32 475 28 500 24.5 525C21 550 18 575 17 600C16 625 17 650 17.5 675C18 700 18 725 22 750C26 775 34 800 35 825C36 850 30 875 27 887.5L24 900Z" fill="#232526"></path></svg>